# xmcd
#
# Track frame offsets: 
#        150
#        19122
#        35237
#
# Disc length: 713 seconds
#
# Revision: 3
# Processed by: cddbd v1.5.1PL0 Copyright (c) Steve Scherf et al.
# Submitted via: ExactAudioCopy v0.90b4
#
DISCID=2002c703
DTITLE=Shannon Noll - Learn to Fly
DYEAR=2004
DGENRE=Rock
TTITLE0=Learn to Fly
TTITLE1=Gone Too Soon
TTITLE2=Hold Me in Your Arms
EXTD=YEAR: 2004 ID3G: 13
EXTT0=
EXTT1=
EXTT2=
PLAYORDER=
